<?xml version="1.0" encoding="UTF-8"?>
<svg xmlns="http://www.w3.org/2000/svg" viewBox="0 0 4352.57 1012.17">
  <defs>
    <style>
      .cls-1 {
        fill: #111011;
      }

      .cls-2 {
        fill: #334f63;
      }

      .cls-3 {
        fill: #c7ecc7;
      }

      .cls-4 {
        fill: #344f63;
      }

      .cls-5 {
        fill: #96d88d;
      }

      .cls-6 {
        fill: #75c5ff;
      }

      .cls-7 {
        fill: #101011;
      }

      .cls-8 {
        fill: #92d688;
      }

      .cls-9 {
        fill: #90d687;
      }

      .cls-10 {
        fill: #bae8bc;
      }

      .cls-11 {
        fill: #0e0e0f;
      }
    </style>
  </defs>
  <g id="Layer_5" data-name="Layer 5">
    <g id="Layer_1" data-name="Layer 1">
      <path class="cls-6" d="M469.32,9.32c.83-.05,1.66-.1,2.48-.15,3.73-.22,7.46-.39,11.2-.52,9.56-.34,19.13-.39,28.7-.17,4.15.1,8.31.24,12.46.45.83.04,1.66.08,2.49.13,1.66.09,3.31.19,4.97.29l2.57.17c4.13.28,8.27.62,12.39,1.01l3.83.38c1.23.13,2.47.26,3.7.39l1.37.15c249.2,28.01,437.87,238.3,438.79,489.06.92,250.77-183.02,467.38-432.01,497.21l-81.33,5.71C223.02,993.08,16.13,778.36,6.67,520.43-2.8,262.49,187.91,40.75,444.36,11.52c1.95-.53,5.12.32,6.29-.68,3.29-.33,6.59-.63,9.89-.9,1.27-.1,2.54-.2,3.81-.29,1.65-.12,3.31-.23,4.96-.34Z"/>
    </g>
    <g id="Layer_2" data-name="Layer 2">
      <path class="cls-9" d="M884.56,568.16c-14.84-3.08-29.67-9.57-41.29-19.3-21.74-18.22-32.16-42.3-49.38-62.95-11.24-13.47-27.62-26.48-38.79-39.24-5.86-6.69-8.87-17.13-15.38-23.94-6.81-7.11-16.83-9.69-21.78-19.42-3.12-6.13-3.67-20.02-13.55-18.37-14.16,2.36-12.04,30.29-18.78,33.88-3.42,1.82-15.16-1.83-18.01-4.53-6.3-5.97-.64-18.18-11.59-21.53-4.48-1.37-9.3,1.26-14.42.75s-9.16-3.91-14.91-3.82c-8.1.13-15.15,4.27-21.81,8.24-7.05,4.21-31.64,27.13-36.43,26.15-6.74-1.38-3.3-21.3-1.78-26.89,8.35-30.62,69.54-62.56,70.67-87.98.54-12.26-5.35-27.06-3.52-42,1.92-15.74,11.71-27.74,16.56-42.21,6.01-17.92-1.38-33.02,13.87-48.55,20.55-20.92,41.13-17.02,63.33-1.15,14.24,10.18,19.22,24.48,37.68,9.72,15.02-12.01,14.72-27.39,19.75-43.92,2.13-7.01,6.86-21.48,16.22-19.48,10.42,2.22,25.47,25.3,32.89,33.35,26.33,28.54,55.13,52.67,73.6,87.45,9.44,17.77,16.46,36.68,25.11,54.78,10.96,22.91,23.31,41.29,31.06,66.3,17.65,56.95,27.3,98.82,1.68,155.16-.94,2.07-1.72,6.43-4.8,5.81-1.9-3.45-7.25-6.15-9.42-8.69-4.68-5.47-10.12-17.17-18.58-16.27-1.95.21-3.82,2.06-5.11,2.07-3.33.02-13.6-12.04-18.43-1.77-4.05,8.62,12.13,22.96,7.53,36.23-4.61,13.29-21.33,24.38-32.19,32.1Z"/>
      <path class="cls-9" d="M328.71,147.62c.15,3.3.02,6.68,0,9.98-.07,12.99-1.38,26.11-2.86,38.99-1.85,16.12-9.29,35.52-2.63,50.73,2.69,6.14,7.92,9.61,10.73,15.48,5.4,11.28,3.37,21.33,3.42,32.74.02,3.92,1.46,7.33,1.43,11.18-.04,5.25-2.14,25.52-3.79,30.02-1.91,5.24-5.92,7.91-10.18,11.05-34.72,25.61-62.4,38.65-92.23,72.87-19.81,22.72-33.15,47.07-41.31,76.36-10.1,2.12-15.99-2.15-28.73,1.25-5.45,1.45-10.77,1.51-13.74,7.49-6.35,3.79-12,4.94-11.32,14.33.79,10.93,13.73,12.89,20.91,16.64,5.24,2.74,20.33,16.58,24.13,21.44,5.38,6.87,2.28,4.71,2.74,10.61.65,8.15,3.45,20.52-6.81,24.64-8.64,3.46-42.13-3.37-51.84-6.22-11.92-3.49-37.73-13.84-45.82-22.86-9.83-10.94-18.02-33.61-25.03-47.37-7.34-14.4-18.22-25.36-15.65-43.65l-6.83,21.24c-2.48,3.54-3.89-4.75-4.06-5.98-4.49-32.19,12.99-87.64,24.6-118.25,30.19-79.59,74.89-155.51,134.33-216.46,2.04,1.26-.43,2.76-1.25,3.74-21.74,26.31-39.85,50.96-56.03,81.29-1.42,2.66-4.63,6.86-3.94,9.79,29.73-44.73,65.08-85.16,104.98-121.06,4.32-.98,3.07,3.37,6.17,6.29,6.16,5.82,13.2,2.3,20.34.3,16.04-4.5,43.13-17.43,59.36-13.79,10.27,2.3,10.51,19,10.88,27.19Z"/>
      <path class="cls-8" d="M703.44,403.44c-3.45,17.56-6.73,31.15-28.55,26.65-9.61-1.98-16.67-6.8-20.39-15.82-1.14-2.78-1.94-9.24-2.29-9.58-.73-.73-7.16,1.38-9.32,1.32-5.64-.15-10.22-4.19-17.55-3.89-19.92.82-46.86,42.93-65,32.59-7.63-4.35-8.61-20.26-7.9-27.99,3.39-37.05,38.98-54.57,61.09-79.98,5.56-6.39,11.61-12.36,11.21-21.2-.71-15.93-5.25-24.35-2.14-42.11,2.93-16.71,12.7-27.3,16.52-42.14,3.42-13.26.75-26.15,7-39.18,5.97-12.46,36.11-39.29,50.42-38.29,9.13.64,8.08,6.15,10.94,8.51.95.79,5.82,1.49,8.04,2.58,12.44,6.09,23.19,13.3,32.9,23.3,8.65,3.99,16.35-9.58,18.94-15.99,5.35-13.26,5.51-30.25,14.25-41.92,4.83-6.46,15.15-14.07,23.34-9.8,10.03,10.12,21.64,18.8,31.7,28.85,14.48,14.47,32.71,33.92,46.05,49.46,33.43,38.97,57.35,91.47,79.12,138.09,16.04,34.34,33.73,102.18,31.46,139.64-1.5,24.63-13.55,46.85-22.59,69.16-8.98.37-7.68-7.09-9.94-11.19,3.07.63,3.86-3.74,4.8-5.81,25.62-56.34,15.97-98.21-1.68-155.16-7.75-25.01-20.1-43.39-31.06-66.3-8.66-18.1-15.68-37-25.11-54.78-18.47-34.78-47.27-58.91-73.6-87.45-7.42-8.05-22.47-31.12-32.89-33.35-9.36-2-14.09,12.47-16.22,19.48-5.02,16.53-4.73,31.91-19.75,43.92-18.46,14.76-23.43.46-37.68-9.72-22.21-15.87-42.78-19.77-63.33,1.15-15.25,15.52-7.86,30.62-13.87,48.55-4.85,14.47-14.64,26.47-16.56,42.21-1.83,14.94,4.07,29.74,3.52,42-1.13,25.43-62.32,57.37-70.67,87.98-1.52,5.58-4.96,25.51,1.78,26.89,4.79.98,29.38-21.95,36.43-26.15,6.66-3.97,13.71-8.12,21.81-8.24,5.75-.09,10.04,3.34,14.91,3.82,5.12.51,9.94-2.13,14.42-.75,10.95,3.36,5.29,15.56,11.59,21.53,2.85,2.7,14.59,6.35,18.01,4.53,6.74-3.58,4.62-31.52,18.78-33.88,9.88-1.65,10.43,12.24,13.55,18.37,4.95,9.73,14.98,12.3,21.78,19.42,6.51,6.81,9.52,17.25,15.38,23.94,11.17,12.77,27.55,25.77,38.79,39.24,17.22,20.65,27.64,44.73,49.38,62.95,11.62,9.73,26.45,16.23,41.29,19.3-3.03,2.15-4.9,3.09-7.84,4.95-1.13.72-1.35,2.65-2.15,3.16-4.74,2.97-25.92-9.37-30.89-12.81-21.48-14.88-35.44-36.93-50.3-57.69-.7-.97-2.3-5.67-3.75-4.99l-.62-1.24c-1.29.13-1,2.57.62,2.49.18,3.1,1.77,4.23,2.5,6.24,6.12,16.93,16.94,34.79,26.96,49.81,14.68,22.02,42.47,43.1,33.9,71.52-7.29,24.19-26.44,50.98-33.6,76.25-25.96,31.81-43.33,69.24-67.47,102.31-11.83,16.21-29.74,40-53.13,31.08-21.1-8.05-21.54-39.96-26.42-58.47-4.21-15.98-10.91-32.66-13.54-48.87-3.13-19.33.02-37.76-6.89-56.76-15.79-43.37-39.91-32.18-73.44-50.17-17.24-9.26-52.58-30.07-58.9-48.47-13.43-39.11,10.3-55.51,22.93-86.1,2.69-6.52,3.74-13.48,6.32-19.89,12.02-29.79,53.9-44.75,84-42.08,8.14.72,14.52,4.42,21.62,5.85,30.05,6.07,61.09,8.61,90.18,19.08l-12.49-21.83c-11.46-8.48-20.33-13.29-26.22-26.84-.53-1.21-.15-2.81-1.88-3.74-1.19-.04-.46,1.67-.62,2.49ZM769.65,479.56c-17.31-13.07-36.95-18.35-58.45-23.34-7.17-1.67-35.57-8.13-41.19-7.62-4.94.45-7.87,4.75-10.7,4.5-3.51-.31-4.33-4.97-8.5-6.42-5.47-1.9-15.03-1.78-21.11-2.73-3.61-.57-9.78-3.61-11.77-3.76-16.45-1.25-50.94,16.18-57.49,31.91-5.52,13.23-6.92,23.78-14.54,37.6-11.65,21.13-19.66,28.2-17.04,55.07,1.97,20.2,25.71,32.16,41.8,41.84,7.62,4.59,16.81,10.48,24.92,13.79,26.27,10.7,42.5,5.05,58.91,33.49,11.22,19.45,12.07,29.57,13.93,50.86,2.86,32.65,12.23,67.34,20.66,99.27,3.67,13.9,7.28,29.24,25.65,24.37,15.01-3.98,39.21-43.16,47.94-56.93,9.83-15.48,17.77-32.59,28.25-47.62,5.36-7.69,13.08-14.11,17.66-22.57,12.91-23.89,21.89-54.63,34.19-79.39-.64-2.72.48-6.51.01-8.86-2.47-12.41-23.83-34.05-31.71-45.69-8.91-13.16-20.32-32.37-26.9-46.75-6.15-13.42-8.17-28.67-14.52-41.03,7.01,5.29,11.54,9.6,17.47,16.22-.49-14.14-9.43-26.91-21.36-34.18-1.54-.94-17.88-8.98-18.59-8.25-1.35,1.4,1.78,3.46,2.6,4.25,7.15,6.91,15.23,12.93,19.87,21.95Z"/>
      <path class="cls-8" d="M182.56,558.17c12.62,6.57,8.12,24.45,6.39,35.71-.6,3.89,3.14,5.14-3.46,9.02-15.34,9.02-57.72-2.66-74.44-8.86-48-17.81-44.75-33.9-66.93-74.15-3.01-5.47-7.24-10.53-10.08-16.14-.9-1.78-1.18-5.29-1.39-5.48-.91-.84-6.71,3.97-11.15.57s-1.81-12.21-2.63-13c-.22-.21-3.3.02-4.87-.71-7.05-3.33-2.03-12.03-1.47-17.58,2.5-24.76,5.4-49.73,10.75-74.12,2.64-12.02,22.97-86.85,28.06-91.77,1.85-1.79,4.32-1.59,6.17-3.81,4.16-5.01,12.82-27.52,16.97-35.46,46.67-89.39,106.33-159.59,196.71-206.56,2.95-1.53,15.23-7.72,17.56-6.27s1.91,8.61,5.46,8.08c.81-.12,11.27-7.5,13.67-8.84,6.85-3.8,38.46-24.28,40.65-8.85.99,7.01-7.96,5.89-11.11,7.16-6.09,2.45-41.18,21.73-43.02,25.66-1.01,2.17-.29,4.74-1.82,6.91-4.35,6.16-27.8,19.38-35.06,27.36-1.24,1.37-10.78,16.25-10,16.83,2.04,1.51,32.7-9.7,38.2-11.12,19.47-5.02,40.91-11.76,50.71,11.53,14.42,34.28-4.56,76.25-4.01,109.97.2,12.14,7.42,14.03,11.88,23.18,7.66,15.7,7.9,64.55,2.51,81.08-6.03,18.48-44.2,36.05-60.46,48.16-27.84,20.75-57.89,51.74-72.77,83.28-2.29,4.85-5.68,17.69-7.96,20.75-1.96,2.63-10.9,5.58-14.31,6.3,8.16-29.3,21.51-53.64,41.31-76.36,29.83-34.22,57.51-47.27,92.23-72.87,4.25-3.14,8.26-5.81,10.18-11.05,1.64-4.5,3.74-24.77,3.79-30.02.03-3.86-1.41-7.26-1.43-11.18-.06-11.41,1.97-21.46-3.42-32.74-2.81-5.87-8.04-9.34-10.73-15.48-6.66-15.21.78-34.61,2.63-50.73,1.48-12.88,2.79-26,2.86-38.99,2.08-1.92,2.1-8.02,0-9.98-.37-8.19-.62-24.89-10.88-27.19-16.23-3.64-43.33,9.29-59.36,13.79-7.14,2.01-14.18,5.52-20.34-.3-3.09-2.92-1.85-7.27-6.17-6.29-39.9,35.9-75.25,76.33-104.98,121.06-.69-2.93,2.52-7.13,3.94-9.79,16.18-30.34,34.29-54.98,56.03-81.29.82-.99,3.29-2.48,1.25-3.74-59.44,60.95-104.13,136.87-134.33,216.46-11.61,30.61-29.1,86.06-24.6,118.25.17,1.23,1.58,9.52,4.06,5.98l6.83-21.24c-2.57,18.29,8.31,29.25,15.65,43.65,7.01,13.76,15.2,36.43,25.03,47.37,8.1,9.01,33.91,19.37,45.82,22.86,9.71,2.85,43.2,9.68,51.84,6.22,10.27-4.11,7.46-16.48,6.81-24.64-.47-5.9,2.63-3.74-2.74-10.61ZM287.06,68.57c.77-.86,8.54-9.73,3.55-9.53-1.32.05-18.43,14.16-20.87,16.27-8.53,7.37-13.8,15.79-21.03,23.02-14.72,14.72-34.02,26.69-47.41,43.04l7.93-3.98c22.86-24.41,55.81-44.19,77.83-68.82Z"/>
      <path class="cls-8" d="M212.54,630.55c-.31-2.98-10.28,4.8-11.25,3.75-.44-.48.63-4.17-.11-4.94-1.04-1.08-5.54,2.8-3.04-6.34,6.72-24.57,53.4-39.14,76.06-37.24,45.93,3.84,48.41,43.36,78.34,65.25,43.1,31.53,120.94,23.74,109.45,99.57-5.01,33.09-19.63,67.28-26.73,100.58-5.04,23.66-5.03,43.75-8.04,66.84-4.52,34.66-25.45,41.83-56.05,50.07-25.18,6.79-32.93,7.11-43.94-18.49-11.26-26.17-16.51-56.73-27.92-84.42-33.07-80.24-77.26-144.17-86.77-234.64ZM329.14,645.11c-21.03-24.43-23.67-49.83-65.34-47.7-7.75.4-33.57,7.4-38.84,12.57-.32.31-2.28,8.21-2.3,8.66-.8,28.82,17.27,84.05,27.79,111.92,20.02,53.05,50.91,101.57,69.15,154.29,6.5,18.8,10.29,40.35,17.61,58.53,7.13,17.68,8.13,19.21,26.46,14.74,15.37-3.75,42.78-11.35,48.99-27.18,4.77-12.14,3.3-39.8,5.46-54.7,6.08-42,24.22-81.42,31.16-122.1,10.24-59.99-30.4-58.53-72.71-77.2-17.35-7.65-34.93-17.3-47.44-31.83Z"/>
      <path class="cls-8" d="M394.54,18.1c6.98-2.1,8.67,2.6,12.17,2.93,8.92.86,20.95-2.51,31.28-1.93,14.49.81,30.24,5.71,44.93,6.28,25.46.98,54.23-8.52,78.73-6.27,30.4,2.79,10.14,26.26,6.22,44.86-9.84,46.71-10.25,64.22-38.28,105.26-8.94,13.08-44.77,53.22-46.96,64.15-.92,4.6.8,8.92-1.67,13.3-2.61,4.64-14.71,6.42-20.15,8.57-14.31,5.65-35.85,19.62-49.59,8.98-4.33-3.35-34.21-53.82-37.36-61.26-14.2-33.47,7.73-69.61,9.8-104.66.91-15.47-2.21-30.78-1.3-46.22.47-7.9,3.25-31.31,12.18-34ZM381.17,182.56c.19,9.12,2.77,14.58,6.84,22.49,8.3,16.09,20.79,32.23,29.05,48.7,8.12,7.28,30.63-5.97,40-9.72,2.66-1.07,10.52-2.62,11.56-3.41.67-.51,3.66-13.1,5.14-16.1,13.25-26.86,43.36-53.7,59.57-82.74,16.91-30.31,16.13-49.63,23.33-81.52,1.69-7.51,8.19-20.88,8.18-26.81,0-2.7.06-1.57-1.89-1.87-16.34-2.52-40.99,3.26-58.53,4.28-32.68,1.89-77.18-11-105.67-.04-.96.37-2.51-.64-2.58-.52-.41.74-1.25,14.58-1.32,16.8-.46,16.14,1.68,33.88.85,49.78-1.18,22.79-11.21,49.31-14.53,73.2-.17,1.19-3.4,5.49,0,7.49Z"/>
      <path class="cls-8" d="M564.81,317.33c.13.13,3.12-1.26,3.39-1.59,3.09-3.72,1.01-15.94,1.66-21.43.26-2.22,1.98-4.04,2.36-6.38.68-4.16-.69-14.9,4.69-16.55,12.78-3.92,12.85,18.71,14.66,26.05.85,3.43,3.59,6.73,4.17,9.56,2.46,11.97-.99,32.59-16.58,32.62-4.36,0-7.21-3.56-10.33-4.49-7.1-2.12-15.27-1.82-21.56-3.42-18.64-4.74-9.38-47.48,10.66-30.62,5.9,4.96,6.02,15.38,6.87,16.24ZM552.29,319.82c.42-.56.09-8.71-2.48-8.72-.41.82-.43,12.56,2.48,8.72Z"/>
      <path class="cls-8" d="M823.76,751.24c-5.39-7.66,2.85-12.25,6.36-17.21,5.43-7.66,14.88-20.12,17.65-28.54,1.2-3.65-.36-10.38,4.97-11.33,10.8-1.92,7.13,7.99,8.36,14.11.69,3.44,3.7,7.03,4.4,11.83,2.51,17.16-4.99,51.32-22.29,59.44-9.59,4.5-18.16.19-19.35-10.45-.57-5.08,3.44-14.16,3.12-15.53s-2.71-1.6-3.22-2.33ZM852.1,725.4c-3.61,11.9-14.6,27.72-15.71,39.88-.72,7.89,6.82-.66,8.74-3.78,3.89-6.32,7.47-19.36,8.18-26.77.18-1.91,1.05-8.53-1.21-9.33Z"/>
      <path class="cls-8" d="M531.07,205.04c-2.53,2.88,7.42,2.86,10.34,3.99,15.16,5.85,5.19,21.94-10.8,20.83-20.91-1.46-30.36-12.74-16.31-30.96,5.37-6.96,19.05-13.88,21.52-1.69,1.57,7.74-3.22,6.09-4.76,7.84Z"/>
      <path class="cls-10" d="M705.94,404.68l-2.5-1.25c.16-.82-.57-2.53.62-2.49,1.73.92,1.35,2.53,1.88,3.74Z"/>
      <path class="cls-5" d="M328.71,157.6c.02-3.31.15-6.69,0-9.98,2.1,1.97,2.08,8.07,0,9.98Z"/>
      <path class="cls-9" d="M769.65,479.56c6.35,12.36,8.37,27.6,14.52,41.03,6.58,14.38,17.99,33.59,26.9,46.75,7.88,11.64,29.25,33.28,31.71,45.69.47,2.34-.65,6.14-.01,8.86-12.29,24.76-21.28,55.5-34.19,79.39-4.57,8.46-12.3,14.88-17.66,22.57-10.48,15.03-18.43,32.13-28.25,47.62-8.73,13.76-32.94,52.95-47.94,56.93-18.37,4.87-21.98-10.46-25.65-24.37-8.43-31.93-17.79-66.62-20.66-99.27-1.87-21.29-2.71-31.42-13.93-50.86-16.41-28.44-32.64-22.79-58.91-33.49-8.12-3.31-17.3-9.2-24.92-13.79-16.09-9.69-39.83-21.64-41.8-41.84-2.62-26.87,5.39-33.94,17.04-55.07,7.62-13.83,9.02-24.37,14.54-37.6,6.56-15.73,41.04-33.15,57.49-31.91,1.99.15,8.16,3.2,11.77,3.76,6.08.95,15.64.83,21.11,2.73,4.17,1.45,4.99,6.1,8.5,6.42,2.82.25,5.76-4.06,10.7-4.5,5.62-.51,34.02,5.96,41.19,7.62,21.5,4.99,41.14,10.27,58.45,23.34Z"/>
      <path class="cls-9" d="M769.65,479.56c-4.64-9.03-12.72-15.05-19.87-21.95-.82-.79-3.96-2.85-2.6-4.25.71-.73,17.04,7.31,18.59,8.25,11.93,7.27,20.87,20.04,21.36,34.18-5.94-6.63-10.47-10.93-17.47-16.22Z"/>
      <path class="cls-3" d="M789.63,500.77c-.06.03-.02.86,0,1.25-1.62.08-1.92-2.36-.62-2.49l.62,1.24Z"/>
      <path class="cls-9" d="M287.06,68.57c-22.01,24.63-54.96,44.41-77.83,68.82l-7.93,3.98c13.4-16.35,32.7-28.31,47.41-43.04,7.22-7.23,12.5-15.65,21.03-23.02,2.44-2.11,19.55-16.21,20.87-16.27,4.99-.21-2.78,8.67-3.55,9.53Z"/>
      <path class="cls-9" d="M329.14,645.11c12.51,14.53,30.09,24.18,47.44,31.83,42.31,18.66,82.95,17.21,72.71,77.2-6.94,40.68-25.08,80.11-31.16,122.1-2.16,14.9-.69,42.56-5.46,54.7-6.21,15.82-33.63,23.42-48.99,27.18-18.33,4.47-19.33,2.95-26.46-14.74-7.33-18.18-11.11-39.72-17.61-58.53-18.24-52.73-49.13-101.24-69.15-154.29-10.52-27.87-28.59-83.1-27.79-111.92.01-.45,1.98-8.35,2.3-8.66,5.27-5.17,31.09-12.17,38.84-12.57,41.67-2.13,44.31,23.27,65.34,47.7Z"/>
      <path class="cls-9" d="M381.17,175.07c3.33-23.89,13.35-50.41,14.53-73.2.82-15.9-1.31-33.64-.85-49.78.06-2.23.91-16.07,1.32-16.8.06-.11,1.61.89,2.58.52,28.5-10.96,72.99,1.93,105.67.04,17.54-1.02,42.2-6.81,58.53-4.28,1.95.3,1.88-.82,1.89,1.87.02,5.93-6.48,19.3-8.18,26.81-7.19,31.89-6.41,51.21-23.33,81.52-16.21,29.05-46.32,55.88-59.57,82.74-1.48,3-4.47,15.58-5.14,16.1-1.04.8-8.9,2.35-11.56,3.41-9.37,3.75-31.88,17-40,9.72-8.26-16.46-20.75-32.61-29.05-48.7-4.08-7.91-6.66-13.37-6.84-22.49-.05-2.49.04-4.99,0-7.49Z"/>
    </g>
    <g id="Layer_3" data-name="Layer 3">
      <path class="cls-2" d="M952.95,559.69c18.68-3.62,14.04,18.35,12.42,28.67-29.92,190.06-167.34,366.24-366.4,391.43-36.94,4.67-95.65,5.25-131.62-4.18-8.83-2.32-16.15-7.01-12.21-17.2,3.11-8.04,8.91-7.59,16.58-7.12,14.16.87,30.24,5.06,45,6.2,222.92,17.3,372.65-148.12,419.7-350.63,2.09-9,5.59-39.54,10.68-44.24,1.08-1,4.4-2.64,5.85-2.92Z"/>
      <path class="cls-2" d="M37.32,587.12c5.11-1.13,11.29,1.23,13.55,5.91,20.37,105.21,85.44,205.74,170.54,270.13,10.21,7.73,43.82,27.33,49.27,34.39,8.89,11.51-3.17,24.18-17.33,17.31-21.59-10.48-56.46-38.49-75.14-54.72-61.98-53.83-125.16-150.87-144.94-230.82-2.59-10.49-11.28-38.8,4.03-42.19Z"/>
      <path class="cls-4" d="M601.9,40.56c19.39-4.38,72.03,19.06,89.89,29.47,12.5,7.29,34.79,22.59,44.79,32.63,11.31,11.35,3.75,25.87-10.69,21.9-6.66-1.83-31.57-23.75-40.53-29.38-26.8-16.84-49.36-23.47-79.67-30.22-15.58-3.47-15.96-21.64-3.78-24.39Z"/>
    </g>
    <g id="Layer_4" data-name="Layer 4">
      <path class="cls-1" d="M464.61.73c426.57-22.26,688.42,467.75,435.97,811.16-227.23,309.1-696.53,247.5-853.99-96.04C-98.78,398.7,111.35,19.17,464.61.73ZM542.32,16.85c0-.85-.64-1.56-1.48-1.63-19.68-1.54-39.38-2.97-59.17-2.43-7.96.22-18.19.71-26.17,1.31-15.93,1.21-31.72,4.6-47.62,6.07-.89.08-1.57.86-1.47,1.74,1.04,9.41-9.71,6.9-5.81,18.33,4.58,13.44,22.42,1.14,27.08,15.37,4.42,13.52-9.2,47.88-11.37,64.09-2.42,18.11-.62,36.42-2.82,54.59-2.13,17.6-14.02,47.52-7.98,63.2,6.85,17.77,30.39-9.6,38.25-15.49,8.73-6.54,19.34-12,27.37-18.83,6.98-5.94,11.89-13.88,18.71-20,15.41-13.83,26.47-17.43,36.47-38.44,6.56-13.8,4.39-23.56,6.17-37.51,3.25-25.53,26.8-49.48,37.34-72.53.45-2.66-1.13-2.03-3.02-1.77-7.08.97-12.65,6.11-19.44,1.71-6.4-4.15-5.1-11.2-5.03-17.78ZM564.79,17.84c-2.8-.34-5.52-1.22-8.35-1.3-.9-.03-1.64.71-1.64,1.61v2.81c0,.98.88,1.73,1.85,1.59l14.2-2.18c.12-.02.24-.02.36,0,.75.07,1.57-.1,2.32-.02,1.44-.11,2.71-.14,3.72.26,1.18.47,1.73,1.14,2.53,2.23,4.53,5.22,4.48,9.25,2.56,15.66-5.15,17.19-27.76,40.53-34.39,59.23-4.81,13.58-2.14,27.92-6.28,42.4-3.83,13.41-15.68,30.72-26.19,39.97-22.44,19.75-42.24,35.7-66.2,53.67-12.54,9.41-28.33,30.49-46.5,20.18-23.57-13.38-3.93-63.14-1.63-84.49,1.91-17.79.13-35.79,2.68-53.48,2.61-18.07,10.44-35.43,12.16-53.74.09-.98-.74-1.81-1.72-1.73-17.73,1.44-32.09-16.12-26.47-32.94.38-1.15-.57-2.31-1.76-2.11-6.93,1.17-25.2,6.46-28.6,7.37-2.26.6-5.12.74-7.49,1.26v1.22c1.97.26,4.38-.32,6.24.01,1.05.19,2.08.25,2.95.92.16.13.29.3.39.48l1.53,2.76c.1.19.18.4.2.62.32,2.86-.74,4.77-3.17,6.21-.12.07-.25.13-.38.17-21.55,6.51-45.62,13.32-65.26,24.4-18.28,10.31-40.31,35.96-38.89,58.51.08,1.22,1.43,1.92,2.47,1.27,6.15-3.91,22.25-19.66,24.79-21.48,9.58-6.92,33.18-20.61,44.72-20.23,15.38.5,13.83,12.53,18.31,21.74,2.32,4.77,6.7,8.18,9.26,13.21,7.88,15.46,2.49,30.62,4.46,46.71,1.66,13.51,10.87,22.5,8.3,38.52-1.65,10.3-14.67,23.98-24.64,26.54-31.75,8.17-26.61-41.59-30.13-61.86-.2-1.15-1.51-1.71-2.48-1.06-9.53,6.46-23.85,14.56-27.67,25.16-2.95,8.16-.83,18.18-9.04,24.66-12.29,9.69-19.62-5.49-33.14.58-17.5,7.86-8.42,28.51-7.74,42.44.32,6.48-5.03,29.66,9.36,25.33,10.37-3.12,21.76-54.07,41.43-60.95,19.56-6.85,13.89,23.87,22.81,26.09,4.5,1.12,11.76-7.27,16.23-8.29,21.99-5.02,16.45,17.81,19.69,30.97,1.73,7.02,5.9,13.64,8.18,20.53,3.93,11.86,7.79,41.48,6.12,53.57-1.71,12.38-15.18,19.46-21.39,6.62-2.55-5.28-1.29-10.92-3.27-16.01-.14-.36-.4-.66-.74-.83-4.08-2.03-21.41-2.22-25.87-.71-.59.2-1.02.74-1.05,1.37-.29,6.35,6.36,10.93,7.37,17.25,3.91,24.42-23.21,22.57-39.48,31.54-20.16,11.12-17.63,21.73-30.43,36.99-8.77,10.46-34.28,26.92-36.11,38.8-1.7,11.07,1.54,36.17-15.98,37.7-13.81,1.21-18.9-16.95-30.89-14.69-3.37.63-4.87,4.35-7.73,6.05-8.2,4.85-16.61.7-22.9,3.33-4.15,1.74-8.83,13.12-8.42,17.28.47,4.72,10.51,17.58,12.26,24.51.15.58.6,1.03,1.18,1.16,10.29,2.37,16.1.09,25.52,7.6,10.26,8.17,9.6,15.75,11.98,27.38.12.6.6,1.09,1.2,1.24,12.65,3.18,19.16,8.3,28.14,17.51,3.68,3.78,1.02,5.08,9.08,2.89,15.46-4.19,28.51-17.97,41.09-22.58,21.46-7.87,21.65,10.69,32.2,18.46,4.54,3.35,10.6,3.58,15.54,6.93,4.74,3.22,7.65,9.36,11.37,12.35,8.89,7.16,29.89,15.17,39.81,21.37,6.23,3.89,10.11,11.7,18,15.71,21.51,10.95,55.15,17.16,68.05,38.08,15.09,24.48,1.8,30.25-4.4,51.27-4.57,15.49-3.13,32.12-8.2,47.96-3.91,12.2-12.21,22.48-16.84,34.34-9.53,24.46-11.68,64.47-11.59,90.75.06,16.36,4.44,36.71,2.58,52.49-1.38,11.65-15.87,14.64-24.93,8.62-19.81-13.16-23.6-51.59-35.66-71.69-5.68-9.45-13.81-15.04-19.9-23.8-13.7-19.73-15.91-52.51-24.11-75.74-13.93-39.47-37.1-51.09-61.53-80.79-21.62-26.3-27.78-57.36-29.36-90.74-.03-.58-.36-1.08-.87-1.34-6.69-3.44-13.14-9.88-19.35-13.12-4.81-2.51-10.48-3.39-15.82-6.66-13.48-8.26-20.21-22.25-37.32-27.61-18.36-5.75-54.11-10.6-66.47-25.94-8.91-11.06-16.62-29.27-21.44-44.04-.59-1.81-3.29-1.27-3.12.64.02.2.03.38.04.52.57,10.5,5.64,29.16-7.29,33.8-.37.13-.79.12-1.15-.02-7.39-3.03-9.53-11.12-11.49-18.24-.74-2.68-.5-6.3-1.87-8.75.19,2.33.5,7.16.62,8.75,2.07,26.72,4.68,51.29,10.38,77.61,56.97,263.23,316.32,438.21,583.18,379.98,209.61-45.73,362.31-228.63,377.12-441.73.01-.17,0-.35-.05-.52l-.21-.84c-.09-.34-.27-.63-.54-.85-4.75-3.82-11.58-8.87-15.55-13.03-10.11-10.6-15.66-21.26-29.61-29.07-10.2-5.71-16.97-4.73-26.95-8.01-14.2-4.68-27.25-18.35-43.22-19.62-1.5-.12-2.33,1.75-1.22,2.78,11.14,10.33,26.27,8.08,38.6,20.19,36.63,35.96-24.56,57.43-49.67,70.38-.23.12-.48.12-.73.17-2.96.61-3.59,1.2-6.47,1.6-.3.04-5.79-.41-6.06-.54-9.16-4.12-12.4-14.42-18.33-21.62-4.82-5.85-10.95-10.82-16.21-16.87-4.07-4.69-9.49-10.18-13.01-15.08-1.48-2.05-2.62-4.27-3.77-6.45-.97-1.84-3.78-.45-2.88,1.42,4.26,8.84,12.2,14.73,18.41,22.6,2.49,3.16,4.97,6.39,6.89,9.96,8.12,15.04,5.14,23.38,25.59,27.47,9.65,1.93,11.13.22,19.99-1.25,33.86-5.62,5.56,35.78-3.23,47.31-9.5,12.46-37.99,34.6-39.3,48.09-1.93,19.87,4.48,39.97-6.41,58.49-3.66,6.23-18.18,20.73-19.45,25.48-1.51,5.67,1.64,11.88.83,18.31-1.64,13.03-43.26,62.77-55.24,69.61-28.92,16.5-54.82-2.03-57.12-33.26-.72-9.79,1.97-18.67.95-28.4-.96-9.09-6.67-24.57-10.66-33.02-2.3-4.85-7.64-9.92-8.69-15.03-2.49-12.1,4.97-23.41,2.09-38.28-2.39-12.36-12.29-19.57-14.32-29.38-1.98-9.57,1.64-18.35-3.48-27.72-6.56-12.01-12.45-5.35-22.64-4.75-60.37,3.52-108.52-12.88-108.14-81.83.05-8.22-.49-20,0-27.45.98-14.85,14.77-23.13,22.57-34.86,10.43-15.69,14.68-37.06,34.53-43.31,1.39-.44,1.57-2.33.26-2.98l-13.89-6.93c-.08-.04-.16-.09-.24-.14-16.09-11.39-14.33-31.06.5-42.8,4.97-3.93,12.31-5.82,16.28-11.19s4.08-12.73,8.92-18.54c6.18-7.41,14.37-15.58,17.24-19.46.04-.05.06-.09.09-.14,1.66-2.84,6.28-9.78,7.45-11.16,3.72-4.35,8.37-9.43,11.76-13.83,6.28-8.16,12.34-25.29,24.98-23.59,7.69,1.04,9.42,9.25,15.07,11.34,15.69,5.8,45.13-21.25,45.52-37.07.2-8.37-14.14-23.49-17.81-34.9-.51-1.59-2.85-1.39-3.1.27-.22,1.43-.28,2.82-.26,3.51.48,21.11,14.92,50.2-9.88,63.76-22.49,12.3-18.85-18.88-24.3-23.27-3.07-2.47-8.46.12-12.57.2-15.86.3-25.4-10.5-21.32-26.32,1.98-7.69,16.14-31.55,21.37-38.55,5.7-7.63,14.13-14.08,19.04-22.16,8.34-13.75,6.86-30.64,24.35-36.82,11.25-3.97,38.3-3.67,48.24,3.44,4.72,3.37,17.57,26.11,17.57,31.11v14.8c0,1.53,1.94,2.19,2.88.98,2.92-3.73,1.79-9.37,3.62-14.27,5.4-14.39,17.75-6.85,26.9-10.56,2.23-.9,10.29-9.15,11.03-11.48,1.65-5.25-3.97-18.53-5.34-24.75-2.22-10.03-4.62-20.2-5.57-30.46-.04-.47-.29-.9-.68-1.17-52.39-36.38-113.82-67.92-176.88-80.77-.58-.12-1.13-.3-1.67-.53-6.65-2.83-14.29-3.55-21.43-4.44-.85-.11-1.67-.33-2.45-.68-3.8-1.72-8.8-1.52-12.79-2.01ZM341.05,37.3l-11.36,3.27.43,1.48,11.36-3.27-.43-1.48ZM273.75,66.5c-1.36.8-2.71,1.93-3.75,2.5-114.33,62.93-196.99,159.97-235.45,285.77-12.55,41.06-19.18,83.11-21.76,125.99-.06.95.73,1.76,1.68,1.7,7.04-.44,7.39,4.1,7.14,9.65-.08,1.79,2.33,2.34,3.08.71.2-.43.42-.84.68-1.22,3.63-5.26,9.21-6.1,14.49-2.5,5.56,3.79,10.98,24.68,14.23,32.08,4.57,10.39,13.38,30.33,23.54,35.14,24.8,11.74,51.22,10.63,73.58,27.56,6.24,4.72,12.1,12.08,17.7,16.01s13.28,5.33,19.91,9.44c2.39,1.48,5.78,4.26,8.74,6.24,5.38,3.59,12.55,5.29,14.4,12.44,1.29,4.97.02,9.61.6,14.37,3.91,32,8.85,53.46,30.57,78.03,21.87,24.73,42.94,38.6,56.21,71.13,9.31,22.83,13.34,65.13,26.36,82.23,13.33,17.51,20.11,20.48,28.93,43.48,6.31,16.44,8.93,38.41,24.93,48.4.81.51,1.91.18,2.3-.69.99-2.2.67-6.57.63-8.15-1.03-45.33-7.45-97.06,10.6-140.29,4.84-11.58,12.75-21.59,16.19-33.75,3.83-13.57,2.94-27.62,6.25-41.18,4.8-19.65,19.66-26.35,5.66-46.81-10.1-14.77-46.85-22.73-63.66-32.49-6.68-3.88-11.11-11.68-16.41-14.81-11.38-6.7-28.88-13.76-39.8-21.39-4.82-3.37-8.11-10.08-12.13-12.84-4.57-3.15-11.4-3.3-16.6-7.13-8.1-5.95-9.53-21.04-20.36-16.42-14.68,6.26-26.75,18.29-44.56,23.34-.08.02-.17.04-.25.05-10.47,1.51-12.05-1.34-18.61-7.51-11.47-10.78-10.14-7.61-22.95-13.88-16.52-8.09-5.42-23.97-19.57-32.86-8.34-5.24-17.77,2.67-26.72-9.5-2.21-3.01-14.03-27.45-14.37-30.63-.8-7.49,4.49-20.89,9.87-26.11,9.46-9.17,16.19-3.33,26.07-6.4,5.67-1.76,7.86-8.55,15.96-9.11,3.33-.23,10.77,1.92,13.85,3.44,3.9,1.92,11.79,11.38,15.68,11.26.55-.02,1.05-.38,1.3-.87,4.08-8.01,2.3-18.35,3.68-26.69,2.98-17.93,31.61-32.48,42.17-47.72,3.46-4.99,4.6-10.48,7.28-15.19,10.77-18.99,35.95-26.56,55.62-32.8.46-.15.85-.49,1.01-.95,2.37-6.83-16.28-21.11-5.21-33.43,7.78-8.66,34.16-8.44,45.93-1.42,1.11.66,2.5-.21,2.4-1.5-.45-5.56-.37-11.57-1.19-16.69-2.82-17.56-15.62-32.99-13.76-51.94.13-1.29-1.23-2.21-2.37-1.57-3.95,2.22-10.99,6.9-13.16,7.34-15.23,3.09-23.23-9.78-25.11-22.82-.18-1.26-1.71-1.8-2.65-.95-1.95,1.76-4.2,5.2-4.83,6.18-7.47,11.65-18,42.42-28.01,49.38-8.96,6.23-21.33,5.09-27.71-4.14-7.23-10.46-3.81-25.69-4.47-37.96-.2-3.74-1.98-7.71-2.32-11.4-1.94-21.06,12.83-40.93,35.34-37.8,4.62.64,10.17,5.64,13.97,2.51,2.12-1.76,2.86-13.08,4.19-17.03,4.01-11.88,22.25-27.45,33.39-32.78,29.16-13.99,21.81,24.47,24.28,41.44.53,3.66,3.53,18.58,6.08,20.17,6.01,3.74,19.81-9.79,20.97-16.57,1.76-10.2-8.45-27.67-9.56-39.79-.93-10.18,2.34-18.91.54-29.24-2.2-12.63-15.47-19.75-15.76-33.33-.02-.84-.69-1.51-1.53-1.55-3.24-.14-6.46-.23-9.67.59-6.9,1.76-27.07,14.5-33.03,19.42-7.99,6.6-28.72,33.68-39.82,18.36-15.08-20.8,11.01-56.94,26.67-70.81,1.04-.92,2.6-1.6,3.75-2.5,2.03-1.58,5.18-2.48,6.25-4.98-3.13-.32-5.25,2.4-7.49,3.73ZM983.16,526.18c1.03.86,2.62.13,2.65-1.21,2.16-108.27-29.92-215.11-92.22-303.38-26.62-37.72-59.09-71.13-94.56-100.58-1.06-.88-2.69-.09-2.64,1.29.49,14.83,12.77,32.14,6.85,45.77-5.3,12.19-21.77,23.26-35.41,20.03-.97-.23-1.92.44-1.98,1.44-.7,12.43-8.1,27.23-22.79,23.96-13.01-2.9-7.1-20.7-9.24-29.46-1.19-4.85-8.82-19.47-12.94-22.01-6.32-3.88-26.74-4.09-33.96-1.6-10.06,3.47-11.71,16.96-15.73,25.46-7.29,15.39-20.94,25.13-29.95,39.96-3.08,5.07-13.95,24.63-12.54,29.44,2.23,7.6,16.6,2.48,22.84,3.47,12.41,1.97,12.55,14.16,15.49,23.74.35,1.14,1.79,1.48,2.65.66,3.6-3.45,7.24-7.66,7.45-12.72.39-9.37-4.56-24.38-4.96-34.79-.29-7.57,2.02-32.3,10.96-34.16,3.74-.77,6.5.09,8.9,3.08,4.19,5.21,10.41,23.85,14.52,31.67,5.36,10.2,12.45,14.44,11.97,28.06-.95,26.95-51.89,68.53-73.88,39.03-.53-.71-1.51-.89-2.23-.38-3.55,2.56-9.03,13.09-10.89,15.51-4.52,5.9-11.78,12.31-15.29,18.42-4.81,8.37-3.91,15.58-12.79,22.17-2.21,1.64-5.19,2.26-7.35,3.89-7.01,5.32-6.47,15.63-12.57,22.38-8,8.87-27.22,10.98-23.46,27.19,1.27,5.49,14.73,12.35,20.37,12.24,14.68-.27,14.68-27.89,17.66-37.36,5.19-16.47,22.28-1.55,30.93-2.75,9.16-1.27,26.91-23.25,33.28-3.14,3.08,9.73-2.96,22.76,3.4,31.52.84,1.16,2.7.67,2.87-.75.5-4.06,2.05-8.02,2.38-12,.72-8.93-3.95-19.61,5.12-24.82,8.04-4.62,14.39.23,18.79,7.01.05.08.1.17.14.26l5.2,12c.66,1.53,2.89,1.15,3.07-.51,1.06-9.95,7.03-18.46,18.28-19.49,5.34-.49,9.06,1.17,13.72,1.33,19.42.67,21.83-31.41,41.78-19.33,10.66,6.45,24.92,21.71,8.46,30.74-11.04,6.05-29.19,6.84-41.33,8.62-8.19,1.2-19.89,11.77-11.97,17.93,10.81,8.41,32.29.63,44.93,15.01,10.98,12.49.76,20.15-5.44,30.95-.44.77-.14,1.73.63,2.17,17.72,10.28,21.96,29.69,32.54,45.25,8.18,12.03,20.53,21.56,29.72,32.7,4.17,5.06,8.6,18.42,16.29,16.27,6.56-1.84,30.73-14.77,37.35-18.89,11.1-6.91,21.4-13.77,11.86-26.62-11.37-15.32-27.56-11.34-41.08-22.6-12.77-10.64-15.02-28.6,6.05-27.27,22.18,1.41,32.58,14.83,50.41,20.78,10.52,3.51,17.87,2.92,28.67,8.8,17.2,9.36,25.08,24.01,39.05,35.61ZM778.2,377.58c1.08-.27,1.56-1.52.95-2.45-2.1-3.19-8.62-8.41-11.14-7.77-.82.21-10.25,10.79-11.48,12.36-.1.13-.2.24-.31.35-1.09,1.14.07,3,1.6,2.61l20.39-5.1ZM650.45,389.96c.22-1.35-1.22-2.33-2.4-1.63-3.58,2.11-9.3,6.34-10.81,7-10.59,4.65-16.16,1.74-25.36-2.22-1.01-.43-2.16.25-2.24,1.34-.62,8.84-3.12,17.33-6.13,25.6-.47,1.29.79,2.52,2.08,2.04,7.74-2.88,14.7-4.26,23.51-3.66,4.82.33,10.15,2.35,15.01,2.58,2.67.13,5.16-1.41,7.76-1.18,1.15.1,2-1.05,1.61-2.14-3.24-9.01-4.6-18.16-3.03-27.73ZM715.93,403.44c-.14,2.84.32,6.01,0,8.74-.75,6.39-3.26,11.63-10.59,11.32-11.42-.49-13.87-19.19-18.98-29.42-.75-1.5-3-1.02-3.05.65-.47,15.56-1.88,40.13-20.4,33.76-1.35-.46-2.61.88-2.02,2.18,4.4,9.63,15.83,8.37,24.81,11.09,6.07,1.84,10.99,5.85,17.48,7.49,13.86,3.52,22.9-2.14,35.72-.74,6.18.68,13.04,3.58,18.64,6.58.74.4,1.68.17,2.12-.55,3.09-5.05,10.97-12.64,8.09-17.4-5.51-9.1-48.26-2-50.58-24.96-.2-2.01.63-6.72,1.25-8.74,1.57-5.11,5.09-9.61,8.92-13.41.96-.96.4-2.58-.95-2.74-11.94-1.43-9.95,5.88-10.47,16.14ZM860.62,584.73c.6-1.17-.38-2.52-1.67-2.32-12.27,1.91-24.14,2.42-35.66-3.58-14.83-7.73-14.76-21.1-22.64-33.54-6.27-9.9-16.21-15.95-21.69-27-10.49-21.17-2.92-37.68-27.66-52.24-16.17-9.52-22.76-2.29-38.54-2.65-13.72-.32-20.28-6.16-31.53-9.71-9.91-3.12-14.88-.94-24.03-8.44-4.24-3.48-6.89-9.28-11.62-10.85-28.02-9.31-34.98.43-57.01,12.14-11.06,5.88-18.24,4.31-26.04,16.42-6.42,9.96-10.39,22.15-17.95,31.98-4.12,5.36-14.37,12.97-15.76,19.19-1.49,6.68-.12,19.66-.21,27.24-.22,18.68-2.18,25.55,8.17,42.9,17.94,30.09,50.26,31.75,82.39,30.1,10.99-.57,20.59-6.76,30.6,1.78,15.58,13.3,8.33,24.39,11.48,39.69,2.13,10.32,14.07,18.71,15.8,36.62,1.2,12.35-2.59,16.63-3.54,26.2-.66,6.59,6.31,13.95,9.29,20.47,3.58,7.84,9.29,23.8,10.29,32.15,1.96,16.29-4.85,35.63,5.35,49.56,8.13,11.1,23.73,10.76,34.34,3.12,9.49-6.84,35.89-39.39,42.37-50.01,7.46-12.22,2.13-10.98,1.94-21.8-.24-14.12,21.88-28.52,25.71-42.92,4.9-18.41-2.95-39.77,4.06-55.84,7.09-16.25,27.37-28.96,38.23-42.92,5.97-7.67,10.97-16.98,15.51-25.75Z"/>
      <path class="cls-11" d="M607.26,326.07c-.05.27-6.77,10.55-7.49,11.23-12.48,11.74-30.61,9.52-31.24-9.98-9.05,6.22-22.85,6.02-24.88-6.94-.91-5.78,1.13-9.88,1.27-14.91.14-4.84-4.44-13.11,3.08-14.35,8.66-1.43,16.07,14.53,24.28,17.47l1.81-36.3c10.19-11.88,15.04,7.76,19.22,14.68,7.5,12.4,17.07,22.72,13.95,39.09ZM582.29,332.3c16.63-3.18,14.98-19.66,5.6-29.94-1.48,4.06-8.35,27.91-5.6,29.94ZM556.05,318.57c2.3.3,3.65.05,4.98-1.88l-.57-1.89-3.8-2.45-.61,6.22Z"/>
      <path class="cls-7" d="M850.49,695.66c8.19-2.39,8.31,7.8,11.56,12.93-3.96,13.03-2.56,27.59-6.87,40.47-2.98,8.92-18.25,33.12-27.76,34.7-21.7,3.61-14.96-32.8-10.89-44.62,4.39-12.75,18.54-18.51,25.83-30.35,2.28-3.71,3.34-11.74,8.13-13.14ZM824.61,770.31c2.45.42,3.56-1.63,4.95-3.15,10.22-11.13,17.33-26.39,16.26-41.77-4.76,4.8-13.4,9.35-16.48,15.35-1.76,3.43-6.19,27.88-4.74,29.57Z"/>
      <path class="cls-1" d="M499.51,215.33c-1.38-1.37-5.12.03-5.92-4.75-.8-4.75.58-6.02,4.12-8.3,8.75-5.65,22.6-4.65,32.72-3.47,33.37,3.89,27.33,44-9.98,39.92-8.55-.93-13.2-5.63-17.07-12.89-1.18-2.22-3.12-9.75-3.86-10.5ZM512.33,211.26c.43,13.01,9.55,18.63,21.95,13.82,10.26-3.98,3.64-13.82-2.59-13.82h-19.36Z"/>
    </g>
  </g>
  <g id="Layer_8" data-name="Layer 8">
    <g>
      <path d="M1377.4,222.63c25.6,0,51.06,6.4,76.4,19.2,25.33,12.8,38,27.2,38,43.2,0,24.54-10.14,36.8-30.4,36.8-7.47,0-20.54-4.8-39.2-14.4-18.67-9.6-34.4-14.4-47.2-14.4-45.88,0-84.14,20.54-114.8,61.6-30.67,41.08-46,93.34-46,156.8,0,47.48,10.4,89.08,31.2,124.8,20.8,35.74,45.46,53.6,74,53.6s50.92-9.46,67.2-28.4c16.26-18.92,24.4-40.4,24.4-64.4,0-13.33-.94-24.4-2.8-33.2-1.88-8.8-6.54-16.8-14-24-7.47-7.2-17.34-10.8-29.6-10.8s-23.88-2.66-34.8-8c-10.94-5.33-16.4-12.53-16.4-21.6s2.66-17.6,8-25.6c5.33-8,12.53-12.8,21.6-14.4,36.26,0,60.66,3.74,73.2,11.2,12.53,7.48,22,13.6,28.4,18.4,6.4,4.8,11.72,12.8,16,24,4.26,11.2,7.6,20.54,10,28,2.4,7.47,4.12,19.47,5.2,36,1.06,27.74,1.6,60.14,1.6,97.2s-2.67,59.88-8,68.4c-4.8,6.94-12.8,10.54-24,10.8-11.2.28-18.94-2-23.2-6.8-4.27-4.8-6.94-15.46-8-32-12.8,11.2-28.94,20.67-48.4,28.4-19.48,7.74-36.67,11.6-51.6,11.6-46.94,0-86.4-24.92-118.4-74.8-32-49.86-48-110-48-180.4,0-37.33,6.12-74,18.4-110,12.26-36,28.8-66.26,49.6-90.8,43.72-50.66,97.6-76,161.6-76Z"/>
      <path d="M1642.19,383.43c28.26,0,55.2,8.27,80.8,24.8,25.6,16.54,38.4,36.94,38.4,61.2s-10.4,47.74-31.2,70.4c-20.8,22.67-48.54,36.4-83.2,41.2-14.94,2.14-37.34,3.2-67.2,3.2,5.86,45.34,17.33,75.2,34.4,89.6,5.33,5.88,12.53,8.8,21.6,8.8,33.06,0,60.8-10.52,83.2-31.6,22.4-21.06,38.4-31.6,48-31.6,4.26,0,10.66,4,19.2,12,8.53,8,12.8,15.48,12.8,22.4,0,13.88-16.8,33.88-50.4,60-14.94,12.28-32.94,22.54-54,30.8-21.08,8.28-40.67,12.4-58.8,12.4-46.4,0-80.54-29.86-102.4-89.6-13.88-36.8-20.8-77.33-20.8-121.6s10.4-82.4,31.2-114.4,53.6-48,98.4-48ZM1646.19,438.63c-20.27,0-37.6,11.48-52,34.4-5.34,8-10.4,26.14-15.2,54.4,74.66,0,112-18.4,112-55.2,0-22.4-14.94-33.6-44.8-33.6Z"/>
      <path d="M1986.99,381.03c38.4,0,70,18.4,94.8,55.2,24.8,36.8,37.2,80.94,37.2,132.4s-12.67,95.34-38,131.6c-25.34,36.27-58.94,54.4-100.8,54.4s-75.6-18.52-101.2-55.6c-25.6-37.06-38.4-78.26-38.4-123.6,0-58.12,11.73-104.52,35.2-139.2,25.06-36.8,62.12-55.2,111.2-55.2ZM1977.39,446.63c-22.4,0-40.8,11.74-55.2,35.2-14.4,23.48-21.6,48.27-21.6,74.4,0,40.54,8,71.48,24,92.8,16,21.34,34.12,32,54.4,32,36.26,0,59.46-15.73,69.6-47.2,4.26-14.92,6.4-33.6,6.4-56,0-87.46-25.88-131.2-77.6-131.2Z"/>
      <path d="M2358.99,379.43l-.8-154.4c0-28.8,9.2-43.2,27.6-43.2s28.66,8,30.8,24c1.06,6.94,2.4,48.8,4,125.6,1.6,76.8,4.12,148.8,7.6,216,3.46,67.2,5.2,129.88,5.2,188,0,16-12,24-36,24-16,0-24-11.2-24-33.6-22.94,18.14-50.14,27.2-81.6,27.2-40,0-72.4-14.92-97.2-44.8-24.8-29.86-37.2-66.66-37.2-110.4s8.92-84.66,26.8-122.8c17.86-38.12,45.73-65.46,83.6-82,23.46-10.12,46.12-15.2,68-15.2,8,0,15.72.54,23.2,1.6ZM2363.39,488.63c-4-11.46-8.67-20.26-14-26.4-5.34-6.12-11.08-9.86-17.2-11.2-6.14-1.33-13.47-2-22-2s-18.94,3.2-31.2,9.6c-12.27,6.4-22.67,16.8-31.2,31.2-17.08,28.8-25.6,59.08-25.6,90.8s6.26,57.6,18.8,77.6c12.53,20,30.4,30,53.6,30s41.46-11.46,54.8-34.4c13.33-22.92,20-52.26,20-88,0-40-2-65.73-6-77.2Z"/>
      <path d="M2477.79,235.83c1.32-20,4.52-33.06,9.6-39.2,5.06-6.12,13.2-9.2,24.4-9.2,22.92,0,34.4,9.34,34.4,28,0,14.4-1.2,52-3.6,112.8-2.4,60.8-3.6,115.2-3.6,163.2s1.86,86.67,5.6,116c6.4,51.2,15.46,76.8,27.2,76.8s20.52-8.26,26.4-24.8c2.66-6.4,6.92-12.12,12.8-17.2,5.86-5.06,13.33-7.6,22.4-7.6,18.66,0,28,15.74,28,47.2,0,17.08-9.2,34-27.6,50.8-18.4,16.8-36.68,25.2-54.8,25.2s-32.67-3.08-43.6-9.2c-10.94-6.12-19.74-15.33-26.4-27.6-6.67-12.26-12-24.12-16-35.6-4-11.46-6.8-25.46-8.4-42-3.2-26.66-5.48-69.46-6.8-128.4-1.34-58.93-2-115.2-2-168.8s.66-90.4,2-110.4Z"/>
      <path d="M2807.78,383.43c28.26,0,55.2,8.27,80.8,24.8,25.6,16.54,38.4,36.94,38.4,61.2s-10.4,47.74-31.2,70.4c-20.8,22.67-48.54,36.4-83.2,41.2-14.94,2.14-37.34,3.2-67.2,3.2,5.86,45.34,17.33,75.2,34.4,89.6,5.33,5.88,12.53,8.8,21.6,8.8,33.06,0,60.8-10.52,83.2-31.6,22.4-21.06,38.4-31.6,48-31.6,4.26,0,10.66,4,19.2,12,8.53,8,12.8,15.48,12.8,22.4,0,13.88-16.8,33.88-50.4,60-14.94,12.28-32.94,22.54-54,30.8-21.08,8.28-40.67,12.4-58.8,12.4-46.4,0-80.54-29.86-102.4-89.6-13.88-36.8-20.8-77.33-20.8-121.6s10.4-82.4,31.2-114.4,53.6-48,98.4-48ZM2811.78,438.63c-20.27,0-37.6,11.48-52,34.4-5.34,8-10.4,26.14-15.2,54.4,74.66,0,112-18.4,112-55.2,0-22.4-14.94-33.6-44.8-33.6Z"/>
      <path d="M3249.38,230.63c35.73,0,75.2,6.94,118.4,20.8,9.6,7.48,14.4,15.6,14.4,24.4s-4.4,16.54-13.2,23.2c-8.8,6.67-18.8,10-30,10-28.8-7.46-55.74-11.2-80.8-11.2-57.6,0-101.34,17.08-131.2,51.2-29.88,34.14-44.8,84.8-44.8,152s17.6,119.74,52.8,157.6c18.12,19.74,39.72,29.6,64.8,29.6s65.06-13.33,120-40c19.2-9.06,32-13.6,38.4-13.6,13.86,0,20.8,7.2,20.8,21.6s-6.68,26.4-20,36c-45.88,24-81.6,40.14-107.2,48.4-25.6,8.28-47.74,12.4-66.4,12.4-38.4,0-71.2-14.12-98.4-42.4-48.54-52.26-72.8-123.6-72.8-214s23.06-157.32,69.2-200.8c46.12-43.46,101.46-65.2,166-65.2Z"/>
      <path d="M3534.97,494.63l6.4,188.8c0,23.48-1.08,37.08-3.2,40.8-1.08,9.6-4.14,17.07-9.2,22.4-5.08,5.34-14.8,8-29.2,8-6.94,0-12.54-4.4-16.8-13.2-4.28-8.8-6.67-18.8-7.2-30-3.74-93.86-8.67-182-14.8-264.4-6.14-82.4-9.2-159.06-9.2-230,0-11.2,3.73-20,11.2-26.4,7.46-6.4,16.26-9.6,26.4-9.6,14.92,0,23.86,12.8,26.8,38.4,2.92,25.6,4.8,57.6,5.6,96s1.73,66.4,2.8,84c26.66-13.86,53.33-20.8,80-20.8,61.86,0,101.06,27.2,117.6,81.6,9.6,30.94,14.4,70.68,14.4,119.2,0,16-1.47,41.2-4.4,75.6-2.94,34.4-4.67,56.67-5.2,66.8-.54,10.14-4.94,18-13.2,23.6-8.27,5.6-17.2,8.4-26.8,8.4-14.94,0-22.4-8-22.4-24l5.6-139.2c0-11.73-.54-31.2-1.6-58.4-1.07-27.2-6.54-48.8-16.4-64.8-9.88-16-27.08-24-51.6-24-43.74,0-65.6,17.07-65.6,51.2Z"/>
      <path d="M4008.57,380.23c23.46,0,35.2,20,35.2,60v13.6l-1.6,56c-.54,17.6-.8,34.94-.8,52l12,180.8c0,13.33-13.6,20-40.8,20h-11.6c-6.14,0-10.4-2.4-12.8-7.2-2.4-4.8-2.67-10.66-.8-17.6,1.86-6.92,1.2-14.66-2-23.2-24.54,26.14-57.08,39.2-97.6,39.2-75.2,0-112.8-58.12-112.8-174.4,0-64.52,12.12-113.33,36.4-146.4,24.26-33.06,59.06-49.6,104.4-49.6,21.33,0,42.66,3.74,64,11.2,6.92-9.6,16.53-14.4,28.8-14.4ZM3925.37,453.03c-30.4,0-53.08,8.8-68,26.4-14.94,17.6-22.4,49.88-22.4,96.8,0,78.94,21.33,118.4,64,118.4,11.2,0,23.6-5.06,37.2-15.2,13.6-10.12,23.06-21.6,28.4-34.4,10.12-28.8,15.2-60.26,15.2-94.4s-4.14-58.92-12.4-74.4c-8.28-15.46-22.28-23.2-42-23.2Z"/>
      <path d="M4118.97,380.23l40,.8c9.06,0,14.12-.26,15.2-.8v-164c.53-9.06,5.06-16.8,13.6-23.2,8.52-6.4,16.52-9.6,24-9.6s13.46,2.4,18,7.2c4.52,4.8,6.52,12.28,6,22.4-.54,10.14-.8,65.6-.8,166.4l93.6-3.2c16,0,24,9.34,24,28,0,13.88-4.14,24.27-12.4,31.2-8.27,6.94-17.07,10.67-26.4,11.2-9.34.54-18.54.8-27.6.8l-48.8-.8c0,21.88,2.26,65.08,6.8,129.6,4.53,64.54,8.12,106.28,10.8,125.2,2.66,18.94,3.2,31.2,1.6,36.8-1.6,5.6-4.54,9.47-8.8,11.6-6.94,3.2-16.28,4.8-28,4.8s-18.67-6.4-20.8-19.2c-10.68-69.86-17.88-165.86-21.6-288-4.8.54-23.2.8-55.2.8s-48-9.32-48-28c0-26.66,14.93-40,44.8-40Z"/>
    </g>
  </g>
</svg>